HIERARCHY
ROOT Hips
{
	OFFSET 0.00000 0.00000 0.00000
	CHANNELS 6 Xposition Yposition Zposition Zrotation Yrotation Xrotation 
	JOINT LHipJoint
	{
		OFFSET 0 0 0
		CHANNELS 3 Zrotation Yrotation Xrotation
		JOINT LeftUpLeg
		{
			OFFSET 1.56741 -1.82513 0.67319
			CHANNELS 3 Zrotation Yrotation Xrotation
			JOINT LeftLeg
			{
				OFFSET 2.35708 -6.47604 0.00000
				CHANNELS 3 Zrotation Yrotation Xrotation
				JOINT LeftFoot
				{
					OFFSET 2.70636 -7.43567 0.00000
					CHANNELS 3 Zrotation Yrotation Xrotation
					JOINT LeftToeBase
					{
						OFFSET 0.20427 -0.56122 2.08535
						CHANNELS 3 Zrotation Yrotation Xrotation
						End Site
						{
							OFFSET 0.00000 -0.00000 1.08535
						}
					}
				}
			}
		}
	}
	JOINT RHipJoint
	{
		OFFSET 0 0 0
		CHANNELS 3 Zrotation Yrotation Xrotation
		JOINT RightUpLeg
		{
			OFFSET -1.51422 -1.82513 0.67319
			CHANNELS 3 Zrotation Yrotation Xrotation
			JOINT RightLeg
			{
				OFFSET -2.48824 -6.83638 0.00000
				CHANNELS 3 Zrotation Yrotation Xrotation
				JOINT RightFoot
				{
					OFFSET -2.70033 -7.41909 0.00000
					CHANNELS 3 Zrotation Yrotation Xrotation
					JOINT RightToeBase
					{
						OFFSET -0.19750 -0.54263 2.22151
						CHANNELS 3 Zrotation Yrotation Xrotation
						End Site
						{
							OFFSET -0.00000 -0.00000 1.14915
						}
					}
				}
			}
		}
	}
	JOINT LowerBack
	{
		OFFSET 0 0 0
		CHANNELS 3 Zrotation Yrotation Xrotation
		JOINT Spine
		{
			OFFSET -0.01567 2.12874 -0.15842
			CHANNELS 3 Zrotation Yrotation Xrotation
			JOINT Spine1
			{
				OFFSET 0.06098 2.13326 -0.01043
				CHANNELS 3 Zrotation Yrotation Xrotation
				JOINT Neck
				{
					OFFSET 0 0 0
					CHANNELS 3 Zrotation Yrotation Xrotation
					JOINT Neck1
					{
						OFFSET -0.05040 1.78432 0.13387
						CHANNELS 3 Zrotation Yrotation Xrotation
						JOINT Head
						{
							OFFSET -0.00180 1.76880 -0.33303
							CHANNELS 3 Zrotation Yrotation Xrotation
							End Site
							{
								OFFSET 0.00734 1.81249 -0.12719
							}
						}
					}
				}
				JOINT LeftShoulder
				{
					OFFSET 0 0 0
					CHANNELS 3 Zrotation Yrotation Xrotation
					JOINT LeftArm
					{
						OFFSET 3.72199 0.94188 -0.54317
						CHANNELS 3 Zrotation Yrotation Xrotation
						JOINT LeftForeArm
						{
							OFFSET 5.14601 -0.00000 0.00000
							CHANNELS 3 Zrotation Yrotation Xrotation
							JOINT LeftHand
							{
								OFFSET 3.64452 -0.00000 -0.00000
								CHANNELS 3 Zrotation Yrotation Xrotation
								JOINT LeftFingerBase
								{
									OFFSET 0 0 0
									CHANNELS 3 Zrotation Yrotation Xrotation
									JOINT LeftHandIndex1
									{
										OFFSET 0.56228 -0.00000 0.00000
										CHANNELS 3 Zrotation Yrotation Xrotation
										End Site
										{
											OFFSET 0.45332 -0.00000 0.00000
										}
									}
								}
								JOINT LThumb
								{
									OFFSET 0 0 0
									CHANNELS 3 Zrotation Yrotation Xrotation
									End Site
									{
										OFFSET 0.46025 -0.00000 0.46025
									}
								}
							}
						}
					}
				}
				JOINT RightShoulder
				{
					OFFSET 0 0 0
					CHANNELS 3 Zrotation Yrotation Xrotation
					JOINT RightArm
					{
						OFFSET -3.30253 1.22679 -0.46941
						CHANNELS 3 Zrotation Yrotation Xrotation
						JOINT RightForeArm
						{
							OFFSET -5.33913 -0.00000 0.00000
							CHANNELS 3 Zrotation Yrotation Xrotation
							JOINT RightHand
							{
								OFFSET -3.56478 -0.00000 -0.00000
								CHANNELS 3 Zrotation Yrotation Xrotation
								JOINT RightFingerBase
								{
									OFFSET 0 0 0
									CHANNELS 3 Zrotation Yrotation Xrotation
									JOINT RightHandIndex1
									{
										OFFSET -0.85747 -0.00000 0.00000
										CHANNELS 3 Zrotation Yrotation Xrotation
										End Site
										{
											OFFSET -0.69132 -0.00000 0.00000
										}
									}
								}
								JOINT RThumb
								{
									OFFSET 0 0 0
									CHANNELS 3 Zrotation Yrotation Xrotation
									End Site
									{
										OFFSET -0.70187 -0.00000 0.70187
									}
								}
							}
						}
					}
				}
			}
		}
	}
}
MOTION
Frames: 16
Frame Time: 0.0454545
0.00 0.00 0.00 0 0 0 0 0 0 -21 0 0 0 0 0 0 0 0 0 0 0 0 0 0 21 0 0 0 0 0 0 0 0 0 0 0 0 0 0 0 0 0 0 0 0 0 0 -16 0 0 21 0 0 11 0 0 0 -8 0 0 0 0 0 0 0 0 0 0 0 0 0 0 0 0 0 0 0 0 8 0 0 0 0 0 0 0 0 0 0 0 0 0 0 0 0 0
0.00 0.00 0.00 -0.1232 -6.3229 -0.0600 0.0000 0.0000 0.0000 -12.9819 -5.2754 -13.8141 5.3558 13.7736 42.3379 0.2942 1.9627 -11.1574 0.7640 -5.5816 -15.5752 0.0000 0.0000 0.0000 24.6009 1.2296 -12.9486 -3.8565 -11.9670 35.6152 -1.1121 -1.0939 -20.3505 -0.4684 -4.3897 12.1758 -1.8116 -0.3416 6.1681 1.8387 -0.5260 0.7921 2.9595 -0.2374 -2.6081 -6.3226 -0.0874 -18.1422 0.2032 1.7209 23.6465 1.3746 0.2303 10.5596 -0.0000 -0.0000 0.0000 -74.9123 2.7047 30.4438 25.7080 -36.9189 -8.7117 -0.0000 -0.0000 1.1022 10.0559 26.3974 4.5079 -7.1250 0.0000 -0.0000 -21.3041 55.4347 -5.6429 -0.0000 -0.0000 0.0000 76.7359 -5.6539 20.2128 -21.0550 31.8925 -6.0790 0.0000 0.0000 8.1130 5.7465 8.5098 0.8532 7.1250 -0.0000 -0.0000 23.0694 -21.5672 14.1386
0.00 0.00 0.00 -2.5971 -7.4251 1.6660 0.0000 0.0000 0.0000 -10.9074 -6.6572 -26.5697 1.6228 8.0317 22.8105 -0.0625 5.2911 -5.0094 0.7120 -5.3928 -15.0325 0.0000 0.0000 0.0000 28.1875 0.4934 -0.2188 -2.7328 -10.2494 29.7881 -1.4589 -3.1552 -24.1414 -0.0338 -1.1861 3.2611 5.2102 3.4519 5.2280 -0.4044 4.8877 0.4830 -3.6439 2.3959 -1.9557 -6.2193 0.9899 -18.7174 -0.7739 3.4881 22.2561 1.2476 0.9813 10.1274 0.0000 -0.0000 0.0000 -76.0209 11.0245 19.1498 28.1510 -39.2549 -10.2191 -0.0000 0.0000 -3.8880 -5.6614 33.4531 -3.1280 -7.1250 0.0000 -0.0000 -42.2177 58.1421 -15.3272 0.0000 -0.0000 0.0000 72.6605 1.6104 25.1972 -25.0562 36.2614 -8.3231 0.0000 0.0000 4.6359 4.2431 7.4492 0.5511 7.1250 -0.0000 -0.0000 22.2347 -22.5722 12.9779
0.00 0.00 0.00 1.5702 -8.5058 -0.8889 0.0000 0.0000 0.0000 -21.5808 -1.9681 -18.2790 2.2288 9.3272 26.8242 0.0790 3.5986 -7.8432 0.0672 -1.6730 -4.6028 0.0000 0.0000 0.0000 17.5669 0.3548 2.4966 -5.4457 -13.8688 42.7144 -0.1869 1.1279 -7.8460 -0.0527 1.4820 -4.0762 2.2069 1.4127 4.3453 0.9456 2.0073 0.4006 -0.3851 0.9858 -1.9815 -6.5577 0.5007 -19.9320 0.4569 2.7501 24.7566 1.6865 0.6724 11.2713 0.0000 0.0000 0.0000 -74.9972 7.3969 24.5246 27.8759 -39.0018 -10.0455 -0.0000 0.0000 -2.6481 1.7340 22.6784 0.6687 -7.1250 0.0000 -0.0000 -27.0072 50.5972 -3.9769 0.0000 0.0000 0.0000 71.8075 -1.7801 21.4061 -23.6826 34.8268 -7.5245 0.0000 0.0000 7.4701 1.8793 6.2219 0.2037 7.1250 -0.0000 -0.0000 20.8085 -23.7444 11.4122
0.00 0.00 0.00 4.7404 -9.5432 -2.5126 0.0000 0.0000 0.0000 -26.3066 0.6059 -12.6108 1.4964 7.7271 21.8882 0.0692 4.1521 -8.1477 0.0693 -1.6986 -4.6735 0.0000 0.0000 0.0000 11.9441 3.0700 -5.9772 -9.9264 -17.3683 59.2422 -0.1811 -1.2289 7.7003 -0.1264 -2.2914 6.3117 -1.4704 1.0033 5.6535 0.9628 1.2693 0.8816 1.7197 0.6471 -2.3150 -5.8952 0.7553 -20.1251 0.3370 2.9205 24.3530 1.5541 0.8061 11.1579 -0.0000 0.0000 0.0000 -74.2709 4.9969 25.8208 27.7486 -38.8837 -9.9654 -0.0000 0.0000 -3.7879 3.7554 17.7400 1.1458 -7.1250 0.0000 -0.0000 -22.7579 46.4100 -0.8346 -0.0000 0.0000 0.0000 72.2331 -1.8783 18.6735 -23.0546 34.1484 -7.1689 0.0000 0.0000 8.6226 0.7190 8.6627 0.1083 7.1250 -0.0000 -0.0000 19.6509 -21.4586 11.7979
0.00 0.00 0.00 6.3411 -8.5610 -2.7966 0.0000 0.0000 0.0000 -29.9072 2.4544 -6.9680 1.5308 7.8116 22.1431 0.4723 2.4750 -14.1216 0.0597 -1.5764 -4.3363 0.0000 0.0000 0.0000 7.6604 8.3677 -31.4102 -13.0900 -18.8144 69.4048 -0.0349 -1.1898 -4.1821 -0.2293 -3.0820 8.5072 -5.5492 -2.1396 7.1391 3.2721 -3.1813 1.6194 6.8087 -1.5791 -1.8263 -4.3632 2.3915 -18.3750 0.0158 4.6148 22.0245 1.3624 1.7534 9.9498 0.0000 -0.0000 0.0000 -73.0384 -1.4430 26.8903 28.2139 -39.3124 -10.2589 -0.0000 0.0000 -2.6850 1.3851 27.9876 0.6501 -7.1250 0.0000 -0.0000 -30.7903 55.1770 -8.2686 0.0000 -0.0000 0.0000 73.8362 -0.8193 13.8816 -23.3229 34.4400 -7.3201 0.0000 0.0000 9.5294 -1.2416 9.0274 -0.1948 7.1250 -0.0000 -0.0000 18.2576 -21.1016 11.0226
0.00 0.00 0.00 2.9164 -0.6278 -3.2329 0.0000 0.0000 0.0000 -15.3659 -0.0587 4.3420 6.1334 14.5564 45.5150 -0.1412 -6.6634 2.9245 2.7482 -10.2759 -29.8749 0.0000 0.0000 0.0000 18.9088 0.7685 -26.8220 -7.2588 -15.5460 49.8463 -0.7763 -1.3345 -17.1790 -0.1170 -2.2053 6.0735 -4.9212 -1.5328 6.6326 2.3618 -2.3257 1.1299 5.4169 -1.1229 -2.2528 -4.5242 1.9927 -20.3290 -0.2969 4.3381 22.3768 1.2817 1.5541 10.4579 -0.0000 -0.0000 0.0000 -72.9913 -1.3581 25.7154 27.7445 -38.8800 -9.9629 -0.0000 0.0000 -4.2043 3.1495 32.4641 1.6917 -7.1250 0.0000 -0.0000 -32.8662 59.3346 -12.3227 -0.0000 -0.0000 0.0000 75.0567 -4.8909 14.1497 -23.8521 35.0075 -7.6216 0.0000 0.0000 7.8233 5.8280 9.8511 1.0005 7.1250 -0.0000 -0.0000 22.9072 -20.3253 14.7322
0.00 0.00 0.00 1.6571 -4.6338 -3.2489 0.0000 0.0000 0.0000 -21.8233 0.2276 -18.1803 4.2979 12.5466 37.6940 0.5336 -1.6488 -13.3291 0.4352 -4.2332 -11.7336 0.0000 0.0000 0.0000 13.9540 0.1225 1.7322 -9.9512 -17.3823 59.3253 -0.0188 -10.2186 7.4682 -0.6267 -5.0658 14.0964 0.5038 1.4823 5.4915 1.8886 2.0729 -0.2793 1.4909 1.0385 -3.4195 -6.5576 -1.8245 -21.0584 1.9362 -0.8822 24.5975 1.6742 -0.7698 11.5758 0.0000 0.0000 0.0000 -76.7764 5.1453 23.0938 30.7337 -41.5140 -11.8929 -0.0000 0.0000 -5.7246 0.4983 30.7236 0.2546 -7.1250 0.0000 -0.0000 -33.8465 57.3060 -11.0503 0.0000 0.0000 0.0000 75.4174 -2.3802 16.2902 -29.0655 40.0788 -10.8029 0.0000 0.0000 6.1586 6.2484 9.1651 0.9991 7.1250 -0.0000 -0.0000 23.2935 -20.9535 14.6618
0.00 0.00 0.00 6.7312 -7.4750 -1.0802 0.0000 0.0000 0.0000 -29.8766 5.3891 6.4460 0.6789 5.2682 14.6751 0.7142 5.4141 -18.8368 0.9958 -6.3508 -17.8056 0.0000 0.0000 0.0000 4.8160 13.1156 -31.6075 -2.0111 -8.8892 25.4494 0.4721 -14.6073 -14.1925 -0.0155 0.8041 -2.2099 -7.9591 -3.4717 5.3988 4.7175 -5.0166 -0.1606 9.8100 -2.4162 -2.0834 -3.8717 1.1146 -21.2032 2.1451 2.2651 24.7116 1.7999 0.9203 11.5042 0.0000 -0.0000 0.0000 -70.3208 -8.8424 30.7845 29.8676 -40.7796 -11.3230 -0.0000 0.0000 -7.8156 2.1747 27.0966 0.9909 -7.1250 0.0000 -0.0000 -29.3947 54.5585 -7.3824 0.0000 -0.0000 0.0000 74.9074 -11.5122 10.8021 -32.1613 42.6754 -12.8500 0.0000 0.0000 5.8118 9.0800 9.3988 1.4950 7.1250 -0.0000 -0.0000 25.0951 -20.6760 16.2239
0.00 0.00 0.00 1.6353 24.7739 0.7483 0.0000 0.0000 0.0000 -5.7813 -0.5940 -7.3171 0.9694 6.2683 17.5649 -0.8665 24.7093 -29.0739 0.2012 2.8883 7.9678 0.0000 0.0000 0.0000 14.3186 -8.1436 -21.4941 -4.0252 -12.1938 36.4210 0.9014 -19.0661 -17.3583 -0.7020 -5.3553 14.9249 -0.3746 1.0817 6.7728 0.8076 1.4472 -0.4433 0.8957 0.7357 -4.2884 -3.8691 4.8947 -19.5547 -0.7458 9.0465 30.6796 1.9209 3.4545 13.5025 0.0000 0.0000 0.0000 -72.9375 5.8089 25.8981 30.6452 -41.4400 -11.8343 -0.0000 0.0000 -12.5439 -1.3682 25.2461 -0.5836 -7.1250 0.0000 -0.0000 -31.4158 52.3293 -6.1653 0.0000 0.0000 0.0000 66.2024 -7.0759 18.8978 -36.8723 46.1037 -16.1479 0.0000 0.0000 1.5455 17.9155 10.1652 3.2656 7.1250 -0.0000 -0.0000 30.3362 -19.5203 21.7091
0.00 0.00 0.00 0.7799 27.7978 1.1106 0.0000 0.0000 0.0000 -5.7404 -12.5868 -3.7914 0.5256 4.6459 12.9014 1.2876 30.6309 -47.6889 1.3601 7.3818 20.8516 0.0000 0.0000 0.0000 14.2997 -7.3959 -21.7699 -4.0939 -12.2843 36.7451 1.2847 -21.7001 -18.3505 -0.9152 -6.0955 17.0617 0.0025 1.1447 7.1581 1.1789 1.5843 -0.6978 1.0440 0.8006 -4.7740 -3.6802 4.8173 -19.7978 -1.3442 9.0994 30.5748 1.6762 3.4190 13.5629 0.0000 0.0000 0.0000 -73.4075 6.4554 24.4898 30.8545 -41.6147 -11.9731 -0.0000 0.0000 -12.6501 -1.9390 25.6289 -0.8390 -7.1250 0.0000 -0.0000 -32.1941 52.5575 -6.5375 0.0000 0.0000 0.0000 65.8794 -6.7919 18.7653 -37.8920 46.7702 -16.8868 0.0000 0.0000 1.0749 17.1695 10.2613 3.1503 7.1250 -0.0000 -0.0000 29.8840 -19.4916 21.2883
0.00 0.00 0.00 -2.6826 41.4686 -1.1731 0.0000 0.0000 0.0000 -6.6174 -1.7837 -16.9412 0.8897 6.0124 16.8203 -3.1557 30.5661 -20.9074 0.0073 -0.5512 -1.5147 0.0000 0.0000 0.0000 15.0732 -9.4603 -16.8497 -3.5586 -11.5486 34.1532 3.0814 -31.0001 -23.7778 -2.4752 -9.7927 28.3081 -1.2550 0.9979 9.1208 3.0239 1.3808 -0.4406 3.6834 0.7721 -5.6918 -3.3516 3.9089 -18.9104 -1.9980 7.7611 29.1308 1.0942 2.8760 12.8446 0.0000 0.0000 0.0000 -73.6045 4.7110 25.5161 30.2612 -41.1162 -11.5810 -0.0000 0.0000 -13.2653 0.1045 28.6629 0.0501 -7.1250 0.0000 -0.0000 -32.5161 55.5023 -9.0760 0.0000 0.0000 0.0000 67.2936 -7.8292 14.1863 -40.2862 48.2385 -18.6524 0.0000 0.0000 3.1529 18.1880 10.0835 3.2923 7.1250 -0.0000 -0.0000 30.5107 -19.5717 21.8397
0.00 0.00 0.00 -6.7540 57.2192 -4.3585 0.0000 0.0000 0.0000 -12.6311 10.3406 -32.2803 3.3070 11.1762 32.8764 -0.3993 12.7327 -11.3292 0.4570 -4.3366 -12.0257 0.0000 0.0000 0.0000 12.6832 -11.4724 -4.8678 -2.4179 -9.6870 27.9691 3.7355 -37.7176 -37.7120 -4.4100 -12.6869 38.2073 -0.6146 2.4286 7.8417 2.3230 3.3106 -0.5072 2.3570 1.6920 -5.1005 -4.9512 1.8519 -18.8074 0.5645 4.5678 29.0482 1.8312 1.6815 12.6824 0.0000 -0.0000 0.0000 -69.7694 2.6647 26.0756 31.2180 -41.9148 -12.2152 -0.0000 0.0000 -13.6337 -0.6994 26.7914 -0.3153 -7.1250 0.0000 -0.0000 -31.8664 53.7655 -7.4541 0.0000 -0.0000 0.0000 72.6636 -9.4132 15.8721 -38.4291 47.1112 -17.2793 0.0000 0.0000 4.2868 17.5452 11.3243 3.5525 7.1250 -0.0000 -0.0000 29.8731 -18.5022 22.0731
0.00 0.00 0.00 -3.1936 64.5222 -4.5721 0.0000 0.0000 0.0000 -18.7783 12.9455 -32.6386 5.3962 13.8166 42.5076 0.4373 3.8055 -14.4721 1.0464 -6.5051 -18.2572 0.0000 0.0000 0.0000 3.8424 -10.7202 -2.8726 -5.0928 -13.4875 41.2219 3.2160 -34.5405 -33.0644 -7.6231 -15.8349 51.1935 -1.9886 2.7228 9.3936 2.1351 3.5417 0.3673 2.8561 1.8312 -5.1418 -3.4345 2.9636 -17.4474 -1.2611 6.3618 29.5872 1.1530 2.4440 12.6990 -0.0000 0.0000 0.0000 -70.5952 2.3470 23.0630 30.4234 -41.2536 -11.6878 -0.0000 0.0000 -7.5390 -1.5579 24.8657 -0.6552 -7.1250 0.0000 -0.0000 -31.3378 51.9715 -5.8554 -0.0000 0.0000 0.0000 72.2163 -7.5640 17.8566 -37.0501 46.2217 -16.2762 0.0000 0.0000 5.7896 17.9786 11.3944 3.6682 7.1250 -0.0000 -0.0000 30.1054 -18.4048 22.3885
0.00 0.00 0.00 -3.3001 65.2639 -4.6593 0.0000 0.0000 0.0000 -19.0560 12.5086 -32.5441 5.4789 13.9036 42.8526 0.4672 3.6645 -14.7763 0.9224 -6.1189 -17.1297 0.0000 0.0000 0.0000 3.3846 -10.8804 -3.3805 -5.3698 -13.7885 42.3967 6.6947 -40.4531 -20.0466 -6.0820 -14.5073 45.3100 -1.6222 2.5703 9.3765 1.9755 3.3690 0.2639 2.5064 1.7356 -5.1972 -3.1803 3.0707 -17.3036 -1.1146 6.4001 29.7175 1.1714 2.5113 12.7218 -0.0000 0.0000 0.0000 -70.0504 2.4823 23.3363 30.4424 -41.2696 -11.7003 -0.0000 0.0000 -7.2951 -2.1663 24.6379 -0.9034 -7.1250 0.0000 -0.0000 -31.7406 51.6749 -5.6982 -0.0000 0.0000 0.0000 72.6452 -7.6896 17.7259 -37.3792 46.4382 -16.5143 0.0000 0.0000 5.8670 17.5942 11.3962 3.5854 7.1250 -0.0000 -0.0000 29.8860 -18.4334 22.1413
0.00 0.00 0.00 -6.6941 67.7495 -7.9824 0.0000 0.0000 0.0000 -18.3387 12.0823 -32.5361 6.0358 14.4629 45.1250 0.7460 1.0155 -16.7152 0.5312 -4.6702 -12.9704 0.0000 0.0000 0.0000 3.6911 -10.9426 -4.8622 -6.5009 -14.8967 46.9602 4.3243 -34.5688 -6.5246 -6.3781 -14.7850 46.4811 -0.2306 2.4849 9.2019 2.5316 3.4409 0.3281 2.3037 1.7476 -4.9889 -4.4633 2.7380 -18.0217 0.1632 5.9870 30.1293 1.8394 2.3410 12.9489 -0.0000 -0.0000 0.0000 -68.8824 2.4448 26.4607 31.4937 -42.1398 -12.3998 -0.0000 0.0000 -10.3939 0.5527 26.6853 0.2482 -7.1250 0.0000 -0.0000 -30.6277 53.9031 -7.2259 -0.0000 -0.0000 0.0000 72.9188 -7.8322 16.5576 -37.8802 46.7626 -16.8783 0.0000 0.0000 6.0912 17.8724 11.6748 3.7334 7.1250 -0.0000 -0.0000 29.9858 -18.1597 22.4630
